<svg width="55" height="55" viewBox="0 0 55 55" fill="none" xmlns="http://www.w3.org/2000/svg">
<path d="M14.8959 11.4583H12.6042C11.9714 11.4583 11.4584 11.9713 11.4584 12.6042V14.8958C11.4584 15.5287 11.9714 16.0417 12.6042 16.0417H14.8959C15.5288 16.0417 16.0417 15.5287 16.0417 14.8958V12.6042C16.0417 11.9713 15.5288 11.4583 14.8959 11.4583Z" fill="#1A5DFF"/>
<path d="M21.7709 11.4583H24.0626C24.6954 11.4583 25.2084 11.9713 25.2084 12.6042V14.8958C25.2084 15.5287 24.6954 16.0417 24.0626 16.0417H21.7709C21.1381 16.0417 20.6251 15.5287 20.6251 14.8958V12.6042C20.6251 11.9713 21.1381 11.4583 21.7709 11.4583Z" fill="#1A5DFF"/>
<path fill-rule="evenodd" clip-rule="evenodd" d="M2.29175 4.58332C2.29175 3.31767 3.31776 2.29166 4.58341 2.29166H50.4167C51.6824 2.29166 52.7084 3.31767 52.7084 4.58332V22.9167C52.7084 24.1823 51.6824 25.2083 50.4167 25.2083H4.58341C3.31776 25.2083 2.29175 24.1823 2.29175 22.9167V4.58332ZM6.87508 6.87499V20.625H48.1251V6.87499H6.87508Z" fill="#1A5DFF"/>
<path d="M14.8959 38.9583H12.6042C11.9714 38.9583 11.4584 39.4713 11.4584 40.1042V42.3958C11.4584 43.0287 11.9714 43.5417 12.6042 43.5417H14.8959C15.5288 43.5417 16.0417 43.0287 16.0417 42.3958V40.1042C16.0417 39.4713 15.5288 38.9583 14.8959 38.9583Z" fill="#1A5DFF"/>
<path d="M24.0626 38.9583H21.7709C21.1381 38.9583 20.6251 39.4713 20.6251 40.1042V42.3958C20.6251 43.0287 21.1381 43.5417 21.7709 43.5417H24.0626C24.6954 43.5417 25.2084 43.0287 25.2084 42.3958V40.1042C25.2084 39.4713 24.6954 38.9583 24.0626 38.9583Z" fill="#1A5DFF"/>
<path fill-rule="evenodd" clip-rule="evenodd" d="M2.29175 32.0833C2.29175 30.8177 3.31776 29.7917 4.58341 29.7917H50.4167C51.6824 29.7917 52.7084 30.8177 52.7084 32.0833V50.4167C52.7084 51.6823 51.6824 52.7083 50.4167 52.7083H4.58341C3.31776 52.7083 2.29175 51.6823 2.29175 50.4167V32.0833ZM6.87508 34.375V48.125H48.1251V34.375H6.87508Z" fill="#1A5DFF"/>
</svg>
