<svg width="55" height="55" viewBox="0 0 55 55" fill="none" xmlns="http://www.w3.org/2000/svg">
<path fill-rule="evenodd" clip-rule="evenodd" d="M20.625 9.16663C20.625 5.36965 23.7031 2.29163 27.5 2.29163C31.2969 2.29163 34.375 5.36965 34.375 9.16663C34.375 12.9635 31.2969 16.0416 27.5 16.0416C23.7031 16.0416 20.625 12.9635 20.625 9.16663ZM27.5 6.87496C26.2344 6.87496 25.2083 7.90099 25.2083 9.16663C25.2083 10.4322 26.2344 11.4583 27.5 11.4583C28.7656 11.4583 29.7917 10.4322 29.7917 9.16663C29.7917 7.90099 28.7656 6.87496 27.5 6.87496ZM39.94 12.3794C43.2283 10.4808 47.4329 11.6075 49.3314 14.8958C51.2299 18.1841 50.1032 22.3887 46.815 24.2872C43.5267 26.1857 39.3221 25.0591 37.4236 21.7708C35.525 18.4825 36.6517 14.2779 39.94 12.3794ZM45.3621 17.1875C44.7292 16.0913 43.3277 15.7158 42.2316 16.3486C41.1355 16.9815 40.76 18.383 41.3928 19.4791C42.0257 20.5753 43.4272 20.9508 44.5233 20.3179C45.6194 19.6851 45.995 18.2836 45.3621 17.1875ZM5.66917 14.8958C7.56764 11.6075 11.7723 10.4809 15.0606 12.3794C18.3489 14.2779 19.4756 18.4825 17.577 21.7708C15.6785 25.0591 11.4739 26.1857 8.18559 24.2872L8.18557 24.2872C4.89735 22.3887 3.77069 18.1841 5.66917 14.8958ZM12.7689 16.3486C11.6728 15.7158 10.2713 16.0913 9.63846 17.1874C9.00563 18.2836 9.38116 19.6851 10.4773 20.3179L9.33143 22.3026L10.4773 20.3179C11.5734 20.9508 12.9749 20.5753 13.6078 19.4791C14.2406 18.383 13.8651 16.9815 12.7689 16.3486ZM20.625 27.5C20.625 23.703 23.7031 20.625 27.5 20.625C31.2969 20.625 34.375 23.703 34.375 27.5C34.375 31.2969 31.2969 34.375 27.5 34.375C23.7031 34.375 20.625 31.2969 20.625 27.5ZM27.5 25.2083C26.2344 25.2083 25.2083 26.2343 25.2083 27.5C25.2083 28.7656 26.2344 29.7916 27.5 29.7916C28.7656 29.7916 29.7917 28.7656 29.7917 27.5C29.7917 26.2343 28.7656 25.2083 27.5 25.2083ZM37.4236 33.2291C39.3221 29.9408 43.5267 28.8142 46.815 30.7127C50.1032 32.6112 51.2299 36.8158 49.3314 40.1041C47.4329 43.3924 43.2283 44.5191 39.94 42.6205C36.6517 40.722 35.525 36.5174 37.4236 33.2291ZM44.5233 34.682C43.4272 34.0491 42.0257 34.4247 41.3928 35.5208C40.76 36.6169 41.1355 38.0184 42.2316 38.6513C43.3277 39.2841 44.7292 38.9086 45.3621 37.8124C45.995 36.7163 45.6194 35.3148 44.5233 34.682ZM8.18559 30.7127C11.4739 28.8142 15.6785 29.9408 17.577 33.2291C19.4756 36.5174 18.3489 40.722 15.0606 42.6205C11.7723 44.5191 7.56764 43.3924 5.66917 40.1041C3.77069 36.8158 4.89735 32.6112 8.18557 30.7127L8.18559 30.7127ZM13.6078 35.5208C12.9749 34.4247 11.5734 34.0491 10.4773 34.682C9.38116 35.3148 9.00563 36.7164 9.63846 37.8125C10.2713 38.9086 11.6728 39.2841 12.7689 38.6513C13.8651 38.0184 14.2406 36.6169 13.6078 35.5208ZM20.625 45.8333C20.625 42.0364 23.7031 38.9583 27.5 38.9583C31.2969 38.9583 34.375 42.0364 34.375 45.8333C34.375 49.6302 31.2969 52.7083 27.5 52.7083C23.7031 52.7083 20.625 49.6302 20.625 45.8333ZM27.5 43.5416C26.2344 43.5416 25.2083 44.5677 25.2083 45.8333C25.2083 47.0989 26.2344 48.125 27.5 48.125C28.7656 48.125 29.7917 47.0989 29.7917 45.8333C29.7917 44.5677 28.7656 43.5416 27.5 43.5416Z" fill="#1A5DFF"/>
</svg>
