<svg width="55" height="55" viewBox="0 0 55 55" fill="none" xmlns="http://www.w3.org/2000/svg">
<path fill-rule="evenodd" clip-rule="evenodd" d="M27.5 2.29163C28.7657 2.29163 29.7917 3.31764 29.7917 4.58329V13.75H32.0834C33.349 13.75 34.375 14.776 34.375 16.0416V34.375C34.375 35.6406 33.349 36.6666 32.0834 36.6666H29.7917V45.8333C29.7917 47.0989 28.7657 48.125 27.5 48.125C26.2344 48.125 25.2084 47.0989 25.2084 45.8333V36.6666H22.9167C21.6511 36.6666 20.625 35.6406 20.625 34.375V16.0416C20.625 14.776 21.6511 13.75 22.9167 13.75H25.2084V4.58329C25.2084 3.31764 26.2344 2.29163 27.5 2.29163ZM25.2084 18.3333V32.0833H29.7917V18.3333H25.2084ZM11.4584 4.58329C12.724 4.58329 13.75 5.60931 13.75 6.87496V16.0416H16.0417C17.3074 16.0416 18.3334 17.0676 18.3334 18.3333V36.6666C18.3334 37.9323 17.3074 38.9583 16.0417 38.9583H13.75V48.125C13.75 49.3906 12.724 50.4166 11.4584 50.4166C10.1927 50.4166 9.16671 49.3906 9.16671 48.125V38.9583H6.87504C5.60939 38.9583 4.58337 37.9323 4.58337 36.6666V18.3333C4.58337 17.0676 5.60939 16.0416 6.87504 16.0416H9.16671V6.87496C9.16671 5.60931 10.1927 4.58329 11.4584 4.58329ZM9.16671 20.625V34.375H13.75V20.625H9.16671ZM43.5417 4.58329C44.8074 4.58329 45.8334 5.60931 45.8334 6.87496V16.0416H48.125C49.3907 16.0416 50.4167 17.0676 50.4167 18.3333V36.6666C50.4167 37.9323 49.3907 38.9583 48.125 38.9583H45.8334V48.125C45.8334 49.3906 44.8074 50.4166 43.5417 50.4166C42.2761 50.4166 41.25 49.3906 41.25 48.125V38.9583H38.9584C37.6927 38.9583 36.6667 37.9323 36.6667 36.6666V18.3333C36.6667 17.0676 37.6927 16.0416 38.9584 16.0416H41.25V6.87496C41.25 5.60931 42.2761 4.58329 43.5417 4.58329ZM41.25 20.625V34.375H45.8334V20.625H41.25Z" fill="#1A5DFF"/>
</svg>
