<svg width="55" height="55" viewBox="0 0 55 55" fill="none" xmlns="http://www.w3.org/2000/svg">
<path fill-rule="evenodd" clip-rule="evenodd" d="M16.0416 2.29167C10.3462 2.29167 5.72913 6.90874 5.72913 12.6042C5.72913 18.2996 10.3462 22.9167 16.0416 22.9167C21.7371 22.9167 26.3541 18.2996 26.3541 12.6042C26.3541 6.90874 21.7371 2.29167 16.0416 2.29167ZM10.3125 12.6042C10.3125 9.44004 12.8775 6.875 16.0416 6.875C19.2058 6.875 21.7708 9.44004 21.7708 12.6042C21.7708 15.7683 19.2058 18.3333 16.0416 18.3333C12.8775 18.3333 10.3125 15.7683 10.3125 12.6042Z" fill="#1A5DFF"/>
<path fill-rule="evenodd" clip-rule="evenodd" d="M38.9583 2.29167C33.2628 2.29167 28.6458 6.90874 28.6458 12.6042C28.6458 18.2996 33.2628 22.9167 38.9583 22.9167C44.6537 22.9167 49.2708 18.2996 49.2708 12.6042C49.2708 6.90874 44.6537 2.29167 38.9583 2.29167ZM33.2291 12.6042C33.2291 9.44004 35.7942 6.875 38.9583 6.875C42.1224 6.875 44.6875 9.44004 44.6875 12.6042C44.6875 15.7683 42.1224 18.3333 38.9583 18.3333C35.7942 18.3333 33.2291 15.7683 33.2291 12.6042Z" fill="#1A5DFF"/>
<path d="M14.2325 30.9375C10.5222 30.9375 6.87496 34.6568 6.87496 40.1042V50.4167C6.87496 51.6823 5.84895 52.7083 4.58329 52.7083C3.31764 52.7083 2.29163 51.6823 2.29163 50.4167V40.1042C2.29163 32.8951 7.28445 26.3542 14.2325 26.3542H20.0219C23.1446 26.3542 25.5382 27.8924 27.0475 29.2479C27.1996 29.3845 27.3447 29.521 27.4827 29.656C27.6129 29.5264 27.7495 29.3954 27.8924 29.2643C29.3652 27.913 31.721 26.3542 34.7941 26.3542H40.6524C47.6408 26.3542 52.7081 32.8679 52.7081 40.1042V50.4167C52.7081 51.6823 51.6821 52.7083 50.4164 52.7083C49.1507 52.7083 48.1247 51.6823 48.1247 50.4167V40.1042C48.1247 34.684 44.4491 30.9375 40.6524 30.9375H34.7941C33.3283 30.9375 32.0327 31.6857 30.991 32.6415C30.4852 33.1056 30.0891 33.5747 29.8222 33.9258C29.69 34.0998 29.5935 34.2394 29.5352 34.3275C29.0591 35.046 28.4013 35.5517 27.5001 35.5517C26.3541 35.5208 25.7999 34.828 25.4746 34.3487C25.413 34.2581 25.3138 34.1173 25.1788 33.9432C24.9063 33.5918 24.5023 33.1225 23.985 32.6579C22.9254 31.7063 21.5799 30.9375 20.0219 30.9375H14.2325Z" fill="#1A5DFF"/>
<path d="M18.036 43.14C18.933 42.2471 18.9362 40.7961 18.0433 39.8991C17.1503 39.0022 15.6993 38.9989 14.8024 39.8919L10.4739 44.201C9.57928 45.0916 9.57333 46.5379 10.4606 47.4358L14.7891 51.8164C15.6786 52.7167 17.1296 52.7254 18.0299 51.8358C18.9302 50.9463 18.9389 49.4953 18.0493 48.595L17.5849 48.125H38.1504L37.65 48.642C36.7698 49.5514 36.7936 51.0023 37.703 51.8825C38.6125 52.7627 40.0633 52.7389 40.9435 51.8295L45.2045 47.4269C46.0727 46.5299 46.0632 45.103 45.1832 44.2176L40.9222 39.9305C40.03 39.0328 38.579 39.0284 37.6813 39.9206C36.7836 40.8128 36.7792 42.2638 37.6714 43.1615L38.0493 43.5417H17.6326L18.036 43.14Z" fill="#1A5DFF"/>
</svg>
