<svg width="55" height="55" viewBox="0 0 55 55" fill="none" xmlns="http://www.w3.org/2000/svg">
<path fill-rule="evenodd" clip-rule="evenodd" d="M2.29163 9.16663C2.29163 5.36967 5.36967 2.29163 9.16663 2.29163C12.9635 2.29163 16.0416 5.36965 16.0416 9.16663C16.0416 10.228 15.8011 11.2332 15.3716 12.1307L17.5945 14.3536C19.6186 12.5525 22.2857 11.4583 25.2083 11.4583C27.5437 11.4583 29.7159 12.157 31.5273 13.3567L32.7533 12.1307C32.3238 11.2332 32.0833 10.228 32.0833 9.16663C32.0833 5.36965 35.1614 2.29163 38.9583 2.29163C42.7552 2.29163 45.8333 5.36965 45.8333 9.16663C45.8333 12.9635 42.7552 16.0416 38.9583 16.0416C37.8969 16.0416 36.8917 15.8011 35.9942 15.3716L34.7682 16.5976C35.968 18.409 36.6666 20.5812 36.6666 22.9166C36.6666 25.3092 35.9333 27.5305 34.6792 29.3681L39.4529 35.3351C40.6838 34.7206 42.0723 34.375 43.5416 34.375C48.6042 34.375 52.7083 38.479 52.7083 43.5416C52.7083 48.6042 48.6042 52.7083 43.5416 52.7083C38.479 52.7083 34.375 48.6042 34.375 43.5416C34.375 41.6116 34.9715 39.8208 35.9902 38.3437L31.3755 32.5754C29.5951 33.7146 27.4788 34.375 25.2083 34.375C23.7842 34.375 22.4208 34.1152 21.1629 33.6404L18.9029 35.9004C19.9866 37.4059 20.625 39.2534 20.625 41.25C20.625 46.3126 16.5209 50.4166 11.4583 50.4166C6.39568 50.4166 2.29163 46.3126 2.29163 41.25C2.29163 36.1874 6.39568 32.0833 11.4583 32.0833C12.856 32.0833 14.1806 32.3961 15.366 32.9555L17.2049 31.1166C15.0733 29.0358 13.75 26.1308 13.75 22.9166C13.75 21.1826 14.1351 19.5386 14.8245 18.0655L12.1307 15.3716C11.2332 15.8011 10.228 16.0416 9.16663 16.0416C5.36965 16.0416 2.29163 12.9635 2.29163 9.16663ZM9.16663 6.87496C7.90097 6.87496 6.87496 7.90097 6.87496 9.16663C6.87496 10.4322 7.90099 11.4583 9.16663 11.4583C10.4322 11.4583 11.4583 10.4322 11.4583 9.16663C11.4583 7.90099 10.4322 6.87496 9.16663 6.87496ZM38.9583 6.87496C37.6927 6.87496 36.6666 7.90099 36.6666 9.16663C36.6666 10.4322 37.6927 11.4583 38.9583 11.4583C40.2239 11.4583 41.25 10.4322 41.25 9.16663C41.25 7.90099 40.2239 6.87496 38.9583 6.87496ZM25.2083 16.0416C21.4113 16.0416 18.3333 19.1196 18.3333 22.9166C18.3333 26.7136 21.4113 29.7916 25.2083 29.7916C29.0053 29.7916 32.0833 26.7136 32.0833 22.9166C32.0833 19.1196 29.0053 16.0416 25.2083 16.0416ZM11.4583 36.6666C8.92699 36.6666 6.87496 38.7187 6.87496 41.25C6.87496 43.7813 8.92699 45.8333 11.4583 45.8333C13.9896 45.8333 16.0416 43.7813 16.0416 41.25C16.0416 38.7187 13.9896 36.6666 11.4583 36.6666ZM43.5416 38.9583C41.0103 38.9583 38.9583 41.0103 38.9583 43.5416C38.9583 46.0729 41.0103 48.125 43.5416 48.125C46.0729 48.125 48.125 46.0729 48.125 43.5416C48.125 41.0103 46.0729 38.9583 43.5416 38.9583Z" fill="#1A5DFF"/>
</svg>
