<svg xmlns="http://www.w3.org/2000/svg" height="800" width="1200" viewBox="-5.010546 -2.3815275 43.424732 14.289165"><path d="M13.17625 5.77696l-.14817-1.05834h-.87577l-.13229 1.05834h-.75406L12.0941.04079h.93398l.90223 5.73617zm-.61913-4.73605l-.32279 2.98186h.69321zm1.76213 4.73605V.04079h1.92617v.71437h-1.15094v1.68275h1.02658v.71438h-1.01864v1.8997h1.143v.72497zm4.02695 0a4.8551 4.8551 0 01-.1164-1.20386v-.4048a4.42648 4.42648 0 00-.0344-.59531.5424.5424 0 00-.14023-.36513.37835.37835 0 00-.24871-.07408h-.31221V5.7796h-.76994V.0408h1.5584a.67204.67204 0 01.70908.56092 4.36298 4.36298 0 01.05027.8202c0 .2196 0 .44715-.01587.6747a1.38112 1.38112 0 01-.0926.45507.64294.64294 0 01-.59532.30957.61648.61648 0 01.52917.24341c.13229.20109.14287.43657.14287.91017v.62442c0 .65087.01588.77258.14817 1.12977zm-.0926-4.7625c0-.12171-.03175-.18786-.08202-.22755-.05027-.03968-.13229-.05027-.28046-.05027h-.38893v1.778h.36248c.19843 0 .31485-.05027.36512-.26458a5.52185 5.52185 0 00.04233-.87577c0-.1217-.01587-.24342-.01587-.36513zm3.73857 4.14602c-.24871.67468-1.00807.66675-1.1827.66675a1.50548 1.50548 0 01-.48682-.07144 1.05833 1.05833 0 01-.62971-.6985 1.85208 1.85208 0 01-.05821-.60325v-2.8522c0-.5133 0-1.00807.45508-1.34938a1.27265 1.27265 0 01.79375-.25136 1.21708 1.21708 0 01.762.22754.96573.96573 0 01.26459.30957c.16404.2831.17197.58472.17197 1.22502v2.7305a1.9103 1.9103 0 01-.08995.66675zm-.6694-3.6248a1.38112 1.38112 0 00-.0926-.70643.39158.39158 0 00-.35455-.16669.52917.52917 0 00-.28045.07937c-.20638.12965-.1905.36513-.1905.79375V4.6075c0 .30691.05027.6006.44714.6006.49477 0 .47096-.4392.47096-.78052zm2.89454 4.24128V3.1126h-.71173v2.66436h-.76993V.04079h.76993v2.33098h.71173V.04079h.7673v5.73617zm1.42875 0V.04079h.762v5.73617zm2.92894 0h-.91017L26.77054.04079h.76994l.59531 4.59052.5715-4.59846h.75936zm1.24883 0V.04079H31.75v.71437h-1.1483v1.68275h1.02395v.71438h-1.016v1.8997H31.75v.72497zm3.16971-.41276a.10583.10583 0 00-.11377-.11112.127.127 0 00.11642-.14023.13758.13758 0 00-.14552-.15081h-.24077v.57414h.12964v-.23812h.0344c.0979 0 .08996.0582.08996.127a.26458.26458 0 00.01587.11112h.127a.8308.8308 0 01-.01323-.17197zm-.19579-.14816h-.0582v-.1614h.06878c.04234 0 .0688.02117.0688.07673 0 .05556-.02646.08467-.0688.08467z"/><path d="M32.80833 5.8431a.59531.59531 0 11.59532-.59531.59531.59531 0 01-.59532.59531zm0-1.05833a.46302.46302 0 10.46302.46302.46302.46302 0 00-.46302-.46302z"/><path d="M11.26649 9.48112V7.16258h.31591l.94403 2.03597.00662-.00635V7.16258h.20637v2.31854h-.31247l-.94747-2.05846-.00635.00662v2.05184zm3.9833-2.31854v.1733h-.84773v.8673h.80884v.1733h-.80884v.93134h.87022v.1733h-1.07633V7.16258zm1.7145.17357h-.56727v-.1733h1.34065v.1733h-.56727v2.14524h-.20638V7.33615zm2.98741-.17357h.27702l.46725 2.0328h.00635l.49636-2.0328h.20294l-.5768 2.31854h-.27066L20.0869 7.4195h-.00661l-.47996 2.06163h-.2577l-.56065-2.31854h.21907l.47043 2.04893h.00662zm3.34513-.04498c.69612 0 .70247.57811.70247 1.20412 0 .626-.00635 1.20412-.70247 1.20412-.69612 0-.70274-.57812-.70274-1.20412 0-.626.00662-1.20412.70274-1.20412zm0 2.2352c.48974 0 .49636-.41434.49636-1.03082 0-.61648-.00635-1.03081-.49636-1.03081s-.49636.41407-.49636 1.03081c0 .61675.00635 1.03082.49636 1.03082zm2.28811-.99563v1.12395h-.20637V7.16258h.64135c.44794 0 .56065.14764.56065.55562 0 .2892-.04842.48181-.3609.55245V8.277c.32545.06747.34476.10584.34476.93451 0 .0897.01614.17965.02249.26961h-.19658c-.01932-.06747-.0291-.4527-.03228-.57811-.00318-.09949.06429-.54584-.38339-.54584zm0-.1733h.33523c.3093 0 .45429-.08043.45429-.46884 0-.31777-.12568-.37888-.36724-.37888h-.42228zm2.40427 1.29725V7.16258h.20638V8.2254h.00661l.82497-1.06283h.24818l-.87021 1.08214.89588 1.2364h-.25797l-.84111-1.18824h-.00662v1.18824zm3.54489-1.7309c-.00635-.28575-.07726-.45932-.39317-.45932-.25136 0-.40931.08678-.40931.35957 0 .3437.1741.35322.43815.54266.28707.20585.58023.26697.58023.7165 0 .41433-.21273.61647-.61886.61647-.45456 0-.65749-.24394-.63818-.69665h.21273c0 .25691.01931.52335.43497.52335.27067 0 .40296-.14446.40296-.41116 0-.3146-.20955-.40455-.54477-.61013-.45112-.27596-.47043-.41408-.4736-.64559-.00318-.40137.25135-.56832.63155-.56832.4834 0 .58658.29871.58658.63262z" fill="#b2b5b6"/><path d="M4.01796.05852c.0217-.0381.05-.05715.07858-.05742-.04974 0-.09922.01085-.13679.03281L.1368 2.25456C.06165 2.29848 0 2.40643 0 2.49453v4.53814c0 .03307.01058.06826.0254.1024zm.15743 0l3.99256 7.0768c.01482-.03412.0254-.06931.0254-.10239v-4.5384c0-.0881-.06165-.19605-.13679-.2397L4.2336.03416c-.03757-.02196-.08731-.0328-.1368-.0328.02858-.00027.0569.01878.07859.05715zM4.0968 1.84657L.9324 7.45997c-.0643.1143-.0254.25982.08704.32517L3.95975 9.4933c.07541.04366.19844.04366.27385 0l2.9403-1.70816c.11245-.06535.15134-.21087.08705-.32517z" fill="#ffc007"/></svg>